<svg width="24" height="24" viewBox="0 0 24 24" fill="none" xmlns="http://www.w3.org/2000/svg">
<path d="M11.7093 6.08105H6.49096C6.09553 6.08105 5.7163 6.23814 5.43669 6.51775C5.15708 6.79735 5 7.17659 5 7.57201V18.0087C5 18.4041 5.15708 18.7834 5.43669 19.063C5.7163 19.3426 6.09553 19.4997 6.49096 19.4997H16.9277C17.3231 19.4997 17.7023 19.3426 17.9819 19.063C18.2615 18.7834 18.4186 18.4041 18.4186 18.0087V12.7904" stroke="#9E9EA0" stroke-width="1.2" stroke-linecap="round" stroke-linejoin="round"/>
<path d="M17.3002 4.96318C17.5967 4.66661 17.999 4.5 18.4184 4.5C18.8378 4.5 19.24 4.66661 19.5366 4.96318C19.8332 5.25975 19.9998 5.66199 19.9998 6.0814C19.9998 6.50081 19.8332 6.90305 19.5366 7.19962L12.4546 14.2817L9.47266 15.0271L10.2181 12.0452L17.3002 4.96318Z" stroke="#9E9EA0" stroke-width="1.2" stroke-linecap="round" stroke-linejoin="round"/>
</svg>
