<svg preserveAspectRatio="none" overflow="visible" style="display: block;" width="15.2625" height="16.2" viewBox="0 0 15.2625 16.2" fill="none" xmlns="http://www.w3.org/2000/svg">
<g id="Group 2085666358">
<path id="Vector" d="M6.225 9.31437C6.52839 9.77197 6.91545 10.1506 7.35994 10.4246C7.80444 10.6986 8.29596 10.8615 8.80117 10.9023C9.30638 10.9431 9.81346 10.8609 10.288 10.6612C10.7626 10.4615 11.1935 10.1489 11.5516 9.74477L13.671 7.35368C14.3144 6.60207 14.6704 5.59541 14.6624 4.55052C14.6543 3.50563 14.2828 2.5061 13.6279 1.76722C12.973 1.02834 12.0871 0.609231 11.161 0.600151C10.2348 0.591071 9.34256 0.992752 8.67637 1.71868L7.46128 3.0816" stroke="#0090FF" stroke-width="1.2" stroke-linecap="round" stroke-linejoin="round"/>
<path id="Vector_2" d="M9.0375 6.88563C8.73411 6.42803 8.34705 6.0494 7.90256 5.77542C7.45806 5.50143 6.96654 5.3385 6.46133 5.29768C5.95612 5.25686 5.44904 5.3391 4.97447 5.53883C4.49991 5.73855 4.06897 6.05109 3.71088 6.45523L1.59154 8.84632C0.948115 9.59793 0.592085 10.6046 0.600133 11.6495C0.608181 12.6944 0.979663 13.6939 1.63457 14.4328C2.28947 15.1717 3.1754 15.5908 4.10155 15.5999C5.02769 15.6089 5.91994 15.2072 6.58613 14.4813L7.79415 13.1184" stroke="#0090FF" stroke-width="1.2" stroke-linecap="round" stroke-linejoin="round"/>
</g>
</svg>
